<svg width="280" height="80" viewBox="0 0 280 80" fill="none" xmlns="http://www.w3.org/2000/svg">
  <rect width="280" height="80" fill="#0F172A"/>
  <g opacity="0.35" stroke="#D4AF37" stroke-width="1.2">
    <path d="M20 10L40 30L20 50L0 30L20 10Z"/>
    <path d="M60 10L80 30L60 50L40 30L60 10Z"/>
    <path d="M100 10L120 30L100 50L80 30L100 10Z"/>
    <path d="M140 10L160 30L140 50L120 30L140 10Z"/>
    <path d="M180 10L200 30L180 50L160 30L180 10Z"/>
    <path d="M220 10L240 30L220 50L200 30L220 10Z"/>
    <path d="M260 10L280 30L260 50L240 30L260 10Z"/>
  </g>
  <g opacity="0.25" stroke="#F3E5AB" stroke-width="1">
    <path d="M20 0V60M60 0V60M100 0V60M140 0V60M180 0V60M220 0V60M260 0V60"/>
    <path d="M0 30H280"/>
  </g>
</svg>
